<svg width="274" height="104" viewBox="0 0 274 104" fill="none" xmlns="http://www.w3.org/2000/svg">
<path fill-rule="evenodd" clip-rule="evenodd" d="M40.0002 13.7357C47.7768 13.7357 69.1832 26.1196 73.0714 32.8679C76.9597 39.616 76.9597 64.384 73.0714 71.1322C69.1832 77.8805 47.7768 90.2643 40.0002 90.2643C32.2235 90.2643 10.8171 77.8805 6.92893 71.1322C3.04062 64.384 3.04062 39.616 6.92893 32.8679C10.8171 26.1196 32.2235 13.7357 40.0002 13.7357ZM40.1158 46.3077C32.052 46.3077 15.8082 55.1796 15.8082 60.1539C15.8082 65.1282 32.052 76.1539 40.1158 76.1539C48.1798 76.1539 64.1922 65.1282 64.1922 60.1539C64.1922 55.1796 48.1798 46.3077 40.1158 46.3077Z" fill="url(#paint0_linear_529_2076)"/>
<path d="M113.65 70.35C110.383 70.35 107.383 69.5833 104.65 68.05C101.917 66.5167 99.75 64.4 98.15 61.7C96.55 58.9667 95.75 55.8833 95.75 52.45C95.75 49.05 96.55 46 98.15 43.3C99.75 40.5667 101.917 38.4333 104.65 36.9C107.383 35.3667 110.383 34.6 113.65 34.6C116.95 34.6 119.95 35.3667 122.65 36.9C125.383 38.4333 127.533 40.5667 129.1 43.3C130.7 46 131.5 49.05 131.5 52.45C131.5 55.8833 130.7 58.9667 129.1 61.7C127.533 64.4 125.383 66.5167 122.65 68.05C119.917 69.5833 116.917 70.35 113.65 70.35ZM113.65 64.1C115.75 64.1 117.6 63.6333 119.2 62.7C120.8 61.7333 122.05 60.3667 122.95 58.6C123.85 56.8333 124.3 54.7833 124.3 52.45C124.3 50.1167 123.85 48.0833 122.95 46.35C122.05 44.5833 120.8 43.2333 119.2 42.3C117.6 41.3667 115.75 40.9 113.65 40.9C111.55 40.9 109.683 41.3667 108.05 42.3C106.45 43.2333 105.2 44.5833 104.3 46.35C103.4 48.0833 102.95 50.1167 102.95 52.45C102.95 54.7833 103.4 56.8333 104.3 58.6C105.2 60.3667 106.45 61.7333 108.05 62.7C109.683 63.6333 111.55 64.1 113.65 64.1ZM169.858 41.9C173.258 41.9 175.991 42.95 178.058 45.05C180.158 47.1167 181.208 50.0167 181.208 53.75V70H174.208V54.7C174.208 52.5333 173.658 50.8833 172.558 49.75C171.458 48.5833 169.958 48 168.058 48C166.158 48 164.641 48.5833 163.508 49.75C162.408 50.8833 161.858 52.5333 161.858 54.7V70H154.858V54.7C154.858 52.5333 154.308 50.8833 153.208 49.75C152.108 48.5833 150.608 48 148.708 48C146.774 48 145.241 48.5833 144.108 49.75C143.008 50.8833 142.458 52.5333 142.458 54.7V70H135.458V42.3H142.458V45.65C143.358 44.4833 144.508 43.5667 145.908 42.9C147.341 42.2333 148.908 41.9 150.608 41.9C152.774 41.9 154.708 42.3667 156.408 43.3C158.108 44.2 159.424 45.5 160.358 47.2C161.258 45.6 162.558 44.3167 164.258 43.35C165.991 42.3833 167.858 41.9 169.858 41.9ZM212.75 42.3V70H205.7V66.5C204.8 67.7 203.617 68.65 202.15 69.35C200.717 70.0167 199.15 70.35 197.45 70.35C195.284 70.35 193.367 69.9 191.7 69C190.034 68.0667 188.717 66.7167 187.75 64.95C186.817 63.15 186.35 61.0167 186.35 58.55V42.3H193.35V57.55C193.35 59.75 193.9 61.45 195 62.65C196.1 63.8167 197.6 64.4 199.5 64.4C201.434 64.4 202.95 63.8167 204.05 62.65C205.15 61.45 205.7 59.75 205.7 57.55V42.3H212.75ZM225.407 46.6C226.307 45.1333 227.474 43.9833 228.907 43.15C230.374 42.3167 232.04 41.9 233.907 41.9V49.25H232.057C229.857 49.25 228.19 49.7667 227.057 50.8C225.957 51.8333 225.407 53.6333 225.407 56.2V70H218.407V42.3H225.407V46.6ZM249.672 70.45C247.005 70.45 244.605 69.8667 242.472 68.7C240.339 67.5 238.655 65.8167 237.422 63.65C236.222 61.4833 235.622 58.9833 235.622 56.15C235.622 53.3167 236.239 50.8167 237.472 48.65C238.739 46.4833 240.455 44.8167 242.622 43.65C244.789 42.45 247.205 41.85 249.872 41.85C252.539 41.85 254.955 42.45 257.122 43.65C259.289 44.8167 260.989 46.4833 262.222 48.65C263.489 50.8167 264.122 53.3167 264.122 56.15C264.122 58.9833 263.472 61.4833 262.172 63.65C260.905 65.8167 259.172 67.5 256.972 68.7C254.805 69.8667 252.372 70.45 249.672 70.45ZM249.672 64.35C250.939 64.35 252.122 64.05 253.222 63.45C254.355 62.8167 255.255 61.8833 255.922 60.65C256.589 59.4167 256.922 57.9167 256.922 56.15C256.922 53.5167 256.222 51.5 254.822 50.1C253.455 48.6667 251.772 47.95 249.772 47.95C247.772 47.95 246.089 48.6667 244.722 50.1C243.389 51.5 242.722 53.5167 242.722 56.15C242.722 58.7833 243.372 60.8167 244.672 62.25C246.005 63.65 247.672 64.35 249.672 64.35Z" fill="white"/>
<defs>
<linearGradient id="paint0_linear_529_2076" x1="4.01266" y1="52" x2="75.9876" y2="52" gradientUnits="userSpaceOnUse">
<stop stop-color="#CA7B73"/>
<stop offset="1" stop-color="#5854A9"/>
</linearGradient>
</defs>
</svg>
